<svg width="49" height="49" viewBox="0 0 49 49" fill="none" xmlns="http://www.w3.org/2000/svg">
<rect x="1" y="1" width="47" height="47" rx="23.5" fill="#1976D2"/>
<path fill-rule="evenodd" clip-rule="evenodd" d="M25.7958 32.8398C25.7958 32.8398 26.2736 32.7889 26.5164 32.5304C26.7417 32.2954 26.7319 31.8489 26.7319 31.8489C26.7319 31.8489 26.7044 29.7692 27.6875 29.4617C28.6569 29.1601 29.9024 31.4729 31.2243 32.364C32.223 33.0357 32.9809 32.8888 32.9809 32.8888L36.5118 32.8398C36.5118 32.8398 38.3585 32.7282 37.4831 31.3045C37.4107 31.187 36.972 30.247 34.8589 28.322C32.6421 26.3049 32.9398 26.6319 35.607 23.1422C37.2305 21.0174 37.8787 19.721 37.677 19.1668C37.4831 18.636 36.2885 18.7751 36.2885 18.7751L32.3131 18.8005C32.3131 18.8005 32.0194 18.7614 31.8 18.8887C31.5866 19.014 31.4475 19.3078 31.4475 19.3078C31.4475 19.3078 30.8209 20.9528 29.9807 22.351C28.2104 25.3003 27.5034 25.4569 27.2136 25.2728C26.5399 24.8459 26.7084 23.5573 26.7084 22.6428C26.7084 19.7836 27.1509 18.589 25.8487 18.2816C25.4178 18.1798 25.0986 18.1132 23.9941 18.1014C22.5743 18.0858 21.3739 18.1053 20.6943 18.4324C20.2439 18.6478 19.8914 19.1335 20.1068 19.1628C20.3692 19.1961 20.9646 19.3195 21.2799 19.7405C21.6872 20.285 21.6715 21.507 21.6715 21.507C21.6715 21.507 21.9065 24.8714 21.1252 25.2905C20.5905 25.5764 19.8562 24.9908 18.2777 22.3138C17.7423 21.3841 17.268 20.4206 16.8579 19.4292C16.8579 19.4292 16.7404 19.1452 16.5289 18.9925C16.2744 18.8084 15.9199 18.7516 15.9199 18.7516L12.1423 18.7751C12.1423 18.7751 11.5744 18.7908 11.3668 19.0336C11.1827 19.249 11.3531 19.6935 11.3531 19.6935C11.3531 19.6935 14.3102 26.485 17.6589 29.9082C20.7296 33.0455 24.2154 32.8398 24.2154 32.8398H25.7958Z" fill="white"/>
</svg>
