<svg width="35" height="35" viewBox="0 0 35 35" fill="none" xmlns="http://www.w3.org/2000/svg">
<g clip-path="url(#clip0_1126_7686)">
<rect x="0.0820312" width="34.918" height="34.918" rx="17.459" fill="#1976D2"/>
<path fill-rule="evenodd" clip-rule="evenodd" d="M18.5041 24.047C18.5041 24.047 18.8591 24.0092 19.0395 23.8171C19.2068 23.6425 19.1995 23.3108 19.1995 23.3108C19.1995 23.3108 19.1792 21.7657 19.9095 21.5373C20.6297 21.3132 21.555 23.0315 22.5371 23.6934C23.2791 24.1925 23.8422 24.0834 23.8422 24.0834L26.4654 24.047C26.4654 24.047 27.8374 23.9641 27.187 22.9063C27.1332 22.819 26.8073 22.1207 25.2374 20.6905C23.5905 19.1919 23.8116 19.4349 25.7932 16.8422C26.9993 15.2637 27.4809 14.3005 27.3311 13.8888C27.187 13.4945 26.2995 13.5978 26.2995 13.5978L23.346 13.6167C23.346 13.6167 23.1278 13.5876 22.9649 13.6822C22.8063 13.7753 22.703 13.9935 22.703 13.9935C22.703 13.9935 22.2374 15.2156 21.6132 16.2545C20.298 18.4456 19.7728 18.5619 19.5574 18.4252C19.057 18.108 19.1821 17.1507 19.1821 16.4712C19.1821 14.3471 19.5109 13.4596 18.5434 13.2311C18.2233 13.1555 17.9861 13.106 17.1656 13.0973C16.1107 13.0856 15.2189 13.1002 14.714 13.3432C14.3794 13.5032 14.1175 13.864 14.2775 13.8858C14.4725 13.9106 14.9148 14.0022 15.149 14.315C15.4517 14.7195 15.44 15.6274 15.44 15.6274C15.44 15.6274 15.6146 18.1269 15.0341 18.4383C14.6369 18.6507 14.0913 18.2157 12.9187 16.2268C12.5208 15.5361 12.1685 14.8202 11.8638 14.0837C11.8638 14.0837 11.7765 13.8727 11.6194 13.7593C11.4303 13.6225 11.1669 13.5803 11.1669 13.5803L8.36039 13.5978C8.36039 13.5978 7.93847 13.6094 7.78424 13.7898C7.64748 13.9499 7.77406 14.2801 7.77406 14.2801C7.77406 14.2801 9.97099 19.3258 12.4589 21.869C14.7402 24.1998 17.33 24.047 17.33 24.047H18.5041Z" fill="white"/>
</g>
<defs>
<clipPath id="clip0_1126_7686">
<rect width="34.918" height="34.918" fill="white" transform="translate(0.0820312)"/>
</clipPath>
</defs>
</svg>
