<svg width="49" height="49" viewBox="0 0 49 49" fill="none" xmlns="http://www.w3.org/2000/svg">
<rect x="1" y="1" width="47" height="47" rx="23.5" fill="#FF9800"/>
<path fill-rule="evenodd" clip-rule="evenodd" d="M27.149 30.049C28.4806 29.7553 29.7653 29.2461 30.9481 28.5294C31.1593 28.4052 31.3432 28.2395 31.4886 28.0423C31.634 27.8451 31.7379 27.6205 31.7941 27.382C31.8503 27.1435 31.8576 26.8961 31.8155 26.6548C31.7734 26.4134 31.6829 26.1831 31.5493 25.9776C31.2683 25.559 30.8366 25.2649 30.3441 25.1565C29.8517 25.0482 29.3364 25.134 28.9056 25.396C27.5749 26.1945 26.0522 26.6163 24.5003 26.6163C22.9484 26.6163 21.4257 26.1945 20.095 25.396C19.6644 25.1335 19.1489 25.0474 18.6563 25.1558C18.1637 25.2641 17.732 25.5586 17.4513 25.9776C17.3177 26.1831 17.2272 26.4134 17.1851 26.6548C17.1431 26.8961 17.1503 27.1435 17.2065 27.382C17.2627 27.6205 17.3667 27.8451 17.512 28.0423C17.6574 28.2395 17.8413 28.4052 18.0525 28.5294C19.2353 29.2461 20.52 29.7553 21.8517 30.049L18.1935 33.5799C18.0159 33.7486 17.8745 33.9516 17.7779 34.1767C17.6812 34.4017 17.6314 34.6441 17.6314 34.889C17.6314 35.134 17.6812 35.3763 17.7779 35.6014C17.8745 35.8265 18.0159 36.0295 18.1935 36.1982C18.5587 36.5475 19.0453 36.7413 19.5506 36.7387C20.0402 36.7387 20.5317 36.5585 20.9077 36.1982L24.5013 32.728L28.0968 36.1982C28.4621 36.5463 28.9473 36.7406 29.452 36.7406C29.9566 36.7406 30.4418 36.5463 30.8071 36.1982C30.985 36.0297 31.1266 35.8267 31.2234 35.6016C31.3202 35.3765 31.3701 35.1341 31.3701 34.889C31.3701 34.644 31.3202 34.4016 31.2234 34.1765C31.1266 33.9514 30.985 33.7484 30.8071 33.5799L27.149 30.049ZM31.0284 18.5771C31.0284 22.059 28.0948 24.8927 24.4856 24.8927C20.8764 24.8927 17.9409 22.059 17.9409 18.5771C17.9409 15.0913 20.8784 12.2595 24.4856 12.2595C28.0929 12.2595 31.0284 15.0932 31.0284 18.5771ZM27.1901 18.5771C27.1901 17.1338 25.9759 15.9627 24.4798 15.9627C22.9875 15.9627 21.7714 17.1338 21.7714 18.5771C21.7714 20.0184 22.9855 21.1915 24.4798 21.1915C25.974 21.1915 27.1901 20.0165 27.1901 18.5771Z" fill="white"/>
</svg>
