<svg width="35" height="35" viewBox="0 0 35 35" fill="none" xmlns="http://www.w3.org/2000/svg">
<g clip-path="url(#clip0_1126_7680)">
<rect width="34.918" height="34.918" rx="17.459" fill="#FF9800"/>
<path fill-rule="evenodd" clip-rule="evenodd" d="M19.4254 21.946C20.4148 21.7277 21.3692 21.3495 22.248 20.817C22.4049 20.7247 22.5415 20.6016 22.6495 20.4551C22.7575 20.3086 22.8347 20.1417 22.8765 19.9645C22.9182 19.7874 22.9236 19.6036 22.8924 19.4242C22.8611 19.2449 22.7939 19.0738 22.6946 18.9212C22.4858 18.6101 22.1651 18.3916 21.7992 18.3111C21.4334 18.2306 21.0505 18.2944 20.7305 18.4891C19.7419 19.0823 18.6106 19.3957 17.4577 19.3957C16.3047 19.3957 15.1734 19.0823 14.1848 18.4891C13.8649 18.294 13.4819 18.2301 13.1159 18.3106C12.75 18.3911 12.4292 18.6099 12.2207 18.9212C12.1215 19.0738 12.0542 19.2449 12.0229 19.4242C11.9917 19.6036 11.9971 19.7874 12.0388 19.9645C12.0806 20.1417 12.1578 20.3086 12.2658 20.4551C12.3738 20.6016 12.5104 20.7247 12.6673 20.817C13.5461 21.3495 14.5005 21.7277 15.4899 21.946L12.7721 24.5692C12.6402 24.6945 12.5351 24.8454 12.4633 25.0126C12.3915 25.1798 12.3545 25.3598 12.3545 25.5418C12.3545 25.7238 12.3915 25.9038 12.4633 26.071C12.5351 26.2382 12.6402 26.3891 12.7721 26.5144C13.0434 26.7739 13.4049 26.9179 13.7803 26.916C14.1441 26.916 14.5093 26.7821 14.7886 26.5144L17.4584 23.9363L20.1296 26.5144C20.401 26.7731 20.7615 26.9174 21.1364 26.9174C21.5113 26.9174 21.8718 26.7731 22.1432 26.5144C22.2753 26.3892 22.3806 26.2384 22.4525 26.0712C22.5244 25.9039 22.5615 25.7238 22.5615 25.5418C22.5615 25.3598 22.5244 25.1797 22.4525 25.0124C22.3806 24.8452 22.2753 24.6944 22.1432 24.5692L19.4254 21.946ZM22.3076 13.4231C22.3076 16.0099 20.1282 18.1152 17.4467 18.1152C14.7653 18.1152 12.5844 16.0099 12.5844 13.4231C12.5844 10.8333 14.7668 8.72949 17.4467 8.72949C20.1267 8.72949 22.3076 10.8348 22.3076 13.4231ZM19.456 13.4231C19.456 12.3508 18.5539 11.4807 17.4424 11.4807C16.3337 11.4807 15.4302 12.3508 15.4302 13.4231C15.4302 14.4939 16.3323 15.3654 17.4424 15.3654C18.5525 15.3654 19.456 14.4924 19.456 13.4231Z" fill="white"/>
</g>
<defs>
<clipPath id="clip0_1126_7680">
<rect width="34.918" height="34.918" fill="white"/>
</clipPath>
</defs>
</svg>
