<svg width="36" height="35" viewBox="0 0 36 35" fill="none" xmlns="http://www.w3.org/2000/svg">
<g clip-path="url(#clip0_1126_7683)">
<rect x="0.541016" width="34.918" height="34.918" rx="17.459" fill="#2D2D2D"/>
<path d="M2.00046 17.6569C2.99126 17.6962 3.98206 17.7224 4.9714 17.7719C6.85698 17.8621 8.74837 17.9523 10.6019 18.3567C12.2242 18.7117 13.6791 19.3766 14.8692 20.558C16.0753 21.754 16.7504 23.2234 17.1054 24.8602C17.3964 26.1755 17.5244 27.5053 17.6001 28.8467C17.6801 30.3816 17.7398 31.9224 17.8038 33.4632H18.2053C18.2548 32.2076 18.2955 30.952 18.361 29.6964C18.4556 27.8763 18.5647 26.0547 19.0506 24.2841C19.9207 21.1124 21.991 19.1875 25.1613 18.4164C26.5522 18.0774 27.9678 17.9421 29.3878 17.8664C30.9228 17.782 32.4635 17.7268 34.0043 17.6627V17.2612C33.0149 17.2219 32.0241 17.1957 31.0333 17.1462C29.1478 17.056 27.2578 16.9658 25.4028 16.5614C23.782 16.2064 22.3257 15.5415 21.1355 14.3601C19.9309 13.1641 19.2558 11.6947 18.9008 10.0579C18.6098 8.73828 18.4803 7.39684 18.4061 6.04668C18.3246 4.5161 18.265 2.98553 18.1995 1.45496H17.8009C17.7601 2.4443 17.7296 3.4351 17.6845 4.42153C17.6001 6.23145 17.5099 8.04719 17.1505 9.83383C16.7999 11.5492 16.1292 13.1045 14.8648 14.3557C13.6747 15.5357 12.2183 16.2006 10.5976 16.5555C9.28232 16.8465 7.95253 16.9775 6.61109 17.0502C5.07761 17.1317 3.53685 17.1913 1.99609 17.2568C2.00046 17.3921 2.00046 17.5216 2.00046 17.6569Z" fill="white"/>
</g>
<defs>
<clipPath id="clip0_1126_7683">
<rect width="34.918" height="34.918" fill="white" transform="translate(0.541016)"/>
</clipPath>
</defs>
</svg>
