<svg xmlns="http://www.w3.org/2000/svg" width="800" height="800" viewBox="0 -7 48 48" xmlns:v="https://vecta.io/nano"><path d="M19.044 23.27l-.002-13.582 12.969 6.815-12.968 6.768zM47.52 7.334s-.47-3.331-1.908-4.798C43.786.61 41.741.601 40.803.489 34.086 0 24.011 0 24.011 0h-.021S13.914 0 7.197.489c-.939.112-2.983.121-4.81 2.047C.948 4.003.48 7.334.48 7.334S0 11.247 0 15.158v3.668c0 3.913.48 7.824.48 7.824s.468 3.331 1.907 4.798c1.827 1.926 4.225 1.866 5.293 2.067C11.52 33.885 24 34 24 34s10.086-.015 16.803-.505c.938-.113 2.983-.122 4.809-2.048 1.439-1.467 1.908-4.798 1.908-4.798s.48-3.911.48-7.824v-3.668c0-3.911-.48-7.824-.48-7.824h0z" fill="#ce1312" fill-rule="evenodd"/></svg>